<?xml version="1.0" encoding="utf-8"?>
<!-- Generator: Adobe Illustrator 19.0.0, SVG Export Plug-In . SVG Version: 6.00 Build 0)  -->
<svg version="1.1" id="Layer_1" xmlns="http://www.w3.org/2000/svg" xmlns:xlink="http://www.w3.org/1999/xlink" x="0px" y="0px"
	 viewBox="0 0 60 60" style="enable-background:new 0 0 60 60;" xml:space="preserve">
<g id="XMLID_5_">
	<path id="XMLID_21_" d="M15.1033001,50.6638985c1.2064991-0.8699989,2.0007-2.2784996,2.0007-3.876297
		c0-2.6392021-2.1475-4.786602-4.7866001-4.786602c-2.6391802,0-4.7866402,2.1473999-4.7866402,4.786602
		c0,1.5977974,0.7942505,3.0062981,2.0007305,3.876297c-2.4373102,1.0750999-4.1447701,3.5108032-4.1447701,6.3410034h1.5
		c0-2.9942017,2.4360299-5.4302025,5.4306798-5.4302025c2.9946003,0,5.4305992,2.4360008,5.4305992,5.4302025h1.5
		C19.2479992,54.1747017,17.5405998,51.7389984,15.1033001,50.6638985z M9.0307598,46.7876015
		c0-1.8120003,1.4746399-3.286602,3.2866402-3.286602s3.2866001,1.4746017,3.2866001,3.286602
		c0,1.8125-1.4745998,3.2870979-3.2866001,3.2870979S9.0307598,48.6001015,9.0307598,46.7876015z"/>
	<path id="XMLID_27_" d="M50.4684982,50.6638985c1.206501-0.8699989,2.0007019-2.2784996,2.0007019-3.876297
		c0-2.6392021-2.1473999-4.786602-4.786602-4.786602c-2.6390991,0-4.7865982,2.1473999-4.7865982,4.786602
		c0,1.5977974,0.7942009,3.0062981,2.0007019,3.876297c-2.4373016,1.0750999-4.1447029,3.5108032-4.1447029,6.3410034h1.5
		c0-2.9942017,2.4360008-5.4302025,5.4305992-5.4302025c2.9946022,0,5.4307022,2.4360008,5.4307022,5.4302025h1.5
		C54.6133003,54.1747017,52.9057999,51.7389984,50.4684982,50.6638985z M44.3959999,46.7876015
		c0-1.8120003,1.4746017-3.286602,3.2865982-3.286602c1.8120003,0,3.286602,1.4746017,3.286602,3.286602
		c0,1.8125-1.4746017,3.2870979-3.286602,3.2870979C45.8706017,50.0746994,44.3959999,48.6001015,44.3959999,46.7876015z"/>
	<path id="XMLID_30_" d="M53.1133003,34.5304985L40.7500992,23.4983997h10.8994026L57,3.0051H3l5.3304396,20.4932995h10.9194613
		L6.8867202,34.5304985v-4.486599h-1.5v7.0517998h7.0522799v-1.5H7.9462299l8.1125698-7.2390995
		c1.2070999,1.2493,2.5690994,2.3353996,4.0611,3.2201004l0.7646008-1.2901001
		c-1.3593998-0.8059998-2.6009007-1.7947998-3.7052002-2.9298L30,15.9165001l12.8092995,11.4300995
		c-1.1012993,1.1341-2.3406982,2.1226997-3.6982002,2.9302998l0.7666016,1.2890015
		c1.4894981-0.8854008,2.8479996-1.9712009,4.0524979-3.2189999l8.1236,7.2487984h-4.4927979v1.5h7.0522995v-7.0517998h-1.5
		V34.5304985z M20.9309006,21.9983997H9.4901695L4.9400601,4.5050998h50.118042L50.490799,21.9983997H39.0690994L30,13.9057999
		L20.9309006,21.9983997z"/>
	<path id="XMLID_31_" d="M23.0636997,33.0014992c1.6982994,0.6494026,3.4824009,1.0555992,5.3031998,1.2070007l0.1240997-1.4950981
		c-1.6796989-0.1392021-3.3251991-0.5137024-4.8910999-1.1133022L23.0636997,33.0014992z"/>
	<path id="XMLID_32_" d="M31.5090008,32.7108994l0.1259995,1.4952011c1.8197994-0.1534004,3.6034985-0.5615997,5.3012981-1.2134018
		l-0.5380974-1.4003983C34.8328018,32.1934013,33.1876984,32.5698013,31.5090008,32.7108994z"/>
</g>
</svg>
