<?xml version="1.0" encoding="utf-8"?>
<!-- Generator: Adobe Illustrator 19.0.0, SVG Export Plug-In . SVG Version: 6.00 Build 0)  -->
<svg version="1.1" id="Layer_1" xmlns="http://www.w3.org/2000/svg" xmlns:xlink="http://www.w3.org/1999/xlink" x="0px" y="0px"
	 viewBox="0 0 60 60" style="enable-background:new 0 0 60 60;" xml:space="preserve">
<style type="text/css">
	.st0{fill:#FFFFFF;}
</style>
<g id="XMLID_1_">
	<g id="XMLID_58_">
		<path id="XMLID_329_" d="M49.0626984,3.0051H10.9372997C6.5717802,3.0051,3,6.5767999,3,10.9422998v38.1254005
			c0,4.3656006,3.5717802,7.9374008,7.9372997,7.9374008h38.1253967C53.4281998,57.0051003,57,53.4333,57,49.0676994V10.9422998
			C57,6.5767999,53.4281998,3.0051,49.0626984,3.0051z M55.5,49.0676994c0,3.5495987-2.8877983,6.4374008-6.4373016,6.4374008
			H10.9372997C7.3877602,55.5051003,4.5,52.6172981,4.5,49.0676994V10.9422998c0-3.5495,2.8877602-6.4372001,6.4372997-6.4372001
			h38.1253967c3.5495033,0,6.4373016,2.8877001,6.4373016,6.4372001V49.0676994z"/>
		<path id="XMLID_393_" d="M12.4698,31.1896c-0.2052002-0.2045994-0.4483995-0.3673-0.7294998-0.4876003
			c-0.2812004-0.1196995-0.5887003-0.1800995-0.9225998-0.1800995H8.6205397v6.4155006H9.81598v-1.8367996h0.9927197
			c0.3338003,0,0.6427002-0.059803,0.927-0.1800995c0.2844-0.1203003,0.5289001-0.282402,0.7341003-0.4876022
			s0.3661003-0.4484978,0.4832001-0.729599c0.1170998-0.2812004,0.1757002-0.5802994,0.1757002-0.8962021
			c0-0.316597-0.0586004-0.6138-0.1757002-0.8923988C12.8359003,31.6368008,12.6750002,31.3948002,12.4698,31.1896z
			 M11.8367996,33.2683983c-0.0585995,0.1435013-0.1402998,0.2695999-0.2458,0.3776016
			c-0.1054993,0.108799-0.2315998,0.1936989-0.3782997,0.2547989C11.0667,33.9625015,10.9052,33.9934998,10.7296,33.9934998H9.81598
			v-2.3645h0.91362c0.1756001,0,0.3371,0.0310001,0.4830999,0.092701c0.1466999,0.0611,0.2728004,0.1448002,0.3782997,0.2502995
			c0.1055002,0.1054993,0.1872005,0.2303009,0.2458,0.3737984c0.0585003,0.1435013,0.0881004,0.2972031,0.0881004,0.4612999
			C11.9249001,32.9710999,11.8952999,33.1249008,11.8367996,33.2683983z"/>
		<path id="XMLID_395_" d="M16.7012005,31.8575001c-0.1499004-0.0405006-0.3178005-0.0611992-0.5056-0.0611992
			c-0.6383009,0-1.0777006,0.2548008-1.3183002,0.7643986v-0.7643986h-1.1773005v5.1410999h1.1864004v-2.7420006
			c0-0.4452019,0.0893993-0.766201,0.2681999-0.9623985c0.1781998-0.1963005,0.4406996-0.2940025,0.7860994-0.2940025
			c0.170001,0,0.3088999,0.0186005,0.4175997,0.0564995c0.1081009,0.0387001,0.206501,0.0870018,0.2947006,0.145401
			l0.4477997-1.1251984C16.9836998,31.9514008,16.8505001,31.8985996,16.7012005,31.8575001z"/>
		<path id="XMLID_429_" d="M21.4293003,32.5368004c-0.2431011-0.2341003-0.5256004-0.4174995-0.8479004-0.5500011
			c-0.3223991-0.1331997-0.667799-0.1994991-1.0370998-0.1994991c-0.3686008,0-0.7161007,0.0662994-1.0410004,0.1994991
			c-0.3255005,0.1325016-0.6079998,0.3159008-0.8486004,0.5500011c-0.2398987,0.2349014-0.4291,0.5083008-0.5667,0.8223
			c-0.1376991,0.3133011-0.2066002,0.6503983-0.2066002,1.012001c0,0.3557968,0.0689011,0.6903992,0.2066002,1.0037003
			c0.1375999,0.3139,0.3268013,0.5873985,0.5667,0.8214989c0.2406006,0.2348976,0.5230999,0.4181976,0.8486004,0.5508003
			c0.3248997,0.1330986,0.6723995,0.199398,1.0410004,0.199398c0.3693008,0,0.7147007-0.0662994,1.0370998-0.199398
			c0.3223-0.1326027,0.6047993-0.3159027,0.8479004-0.5508003c0.2432003-0.2341003,0.4337006-0.5075989,0.5713997-0.8214989
			c0.1376991-0.3133011,0.2064991-0.6479034,0.2064991-1.0037003c0-0.3616028-0.0688-0.6987-0.2064991-1.012001
			C21.8630009,33.0451012,21.6725006,32.7717018,21.4293003,32.5368004z M20.9242992,34.9353981
			c-0.0765991,0.1788025-0.1820984,0.3345032-0.3165989,0.4657021c-0.1343994,0.1325989-0.2926006,0.2368011-0.4748001,0.3139992
			c-0.1814003,0.0765991-0.3775997,0.1152-0.5886002,0.1152s-0.4085999-0.0386009-0.5932007-0.1152
			c-0.1845989-0.077198-0.3428993-0.1814003-0.4741001-0.3139992c-0.1318989-0.1311989-0.2361984-0.2868996-0.3120995-0.4657021
			c-0.0765991-0.178299-0.1145-0.3667984-0.1145-0.5642967c0-0.2033005,0.0379009-0.3944016,0.1145-0.5732002
			c0.075901-0.1783028,0.1802006-0.3339005,0.3120995-0.4658012c0.1312008-0.1319008,0.2895012-0.2361984,0.4741001-0.3134003
			c0.1846008-0.0764999,0.3822002-0.1151009,0.5932007-0.1151009s0.4071999,0.0386009,0.5886002,0.1151009
			c0.1821995,0.0772018,0.3404007,0.1814995,0.4748001,0.3134003c0.1345005,0.1319008,0.2399998,0.2874985,0.3165989,0.4658012
			c0.075901,0.1787987,0.1139011,0.3698997,0.1139011,0.5732002C21.0382004,34.5685997,21.0002003,34.7570992,20.9242992,34.9353981
			z"/>
		<path id="XMLID_430_" d="M25.2747002,36.9464989c0.2985001,0,0.5771999-0.039299,0.8351002-0.116497
			c0.2572994-0.0778008,0.4902-0.1866035,0.6987-0.3274002c0.2078991-0.1410027,0.3904991-0.3089027,0.5489006-0.5044022
			c0.1581993-0.1949997,0.2867985-0.4078979,0.3865986-0.6375999L26.6812,34.9320984
			c-0.1177998,0.2638016-0.2947006,0.4793015-0.5321007,0.6466026c-0.2374001,0.1679001-0.5230999,0.2515984-0.8569984,0.2515984
			c-0.2168007,0-0.4189014-0.0386009-0.6060009-0.1152c-0.1879005-0.077198-0.3507004-0.1814003-0.4876995-0.3139992
			c-0.1382999-0.1311989-0.2451-0.2868996-0.3211002-0.4657021c-0.0764999-0.178299-0.1145-0.3667984-0.1145-0.5642967
			c0-0.2033005,0.0380001-0.3944016,0.1145-0.5732002c0.0760002-0.1783028,0.1828003-0.3339005,0.3211002-0.4658012
			c0.1369991-0.1319008,0.2985001-0.2361984,0.483099-0.3134003c0.1847-0.0764999,0.3855-0.1151009,0.6023006-0.1151009
			c0.3159008,0,0.5956993,0.0785027,0.8388996,0.2354012c0.2432003,0.1570015,0.4232998,0.3674011,0.5403996,0.6311989
			l1.0635014-0.4202003c-0.0998001-0.2301979-0.2284012-0.4399986-0.3866005-0.6303978
			c-0.1583996-0.1898003-0.3430004-0.3539009-0.5540009-0.4916c-0.2103996-0.1383018-0.4433002-0.2464008-0.6987-0.3242016
			c-0.2547989-0.0772991-0.5255985-0.1164989-0.8125992-0.1164989c-0.375,0-0.7250996,0.0662994-1.0499001,0.1994991
			c-0.3255997,0.1325016-0.6079998,0.3159008-0.8486004,0.5500011c-0.2399998,0.2349014-0.4291992,0.5083008-0.5669003,0.8223
			c-0.1376991,0.3133011-0.2064991,0.6503983-0.2064991,1.012001c0,0.3557968,0.0688,0.6903992,0.2064991,1.0037003
			c0.137701,0.3139,0.3269005,0.5859985,0.5669003,0.8176994c0.2406006,0.2315979,0.5230007,0.4149971,0.8486004,0.5506973
			C24.5496006,36.8782997,24.8997002,36.9464989,25.2747002,36.9464989z"/>
		<path id="XMLID_433_" d="M32.1607018,36.5637016c0.4007988-0.2548027,0.7127991-0.5900002,0.9353981-1.0063019L32.1208,34.9952011
			c-0.1229,0.2753983-0.3076,0.4953003-0.5533009,0.6593971c-0.2463989,0.1641006-0.5366001,0.2458-0.8704987,0.2458
			c-0.4214001,0-0.7700996-0.1112976-1.0454006-0.3338966c-0.2761002-0.2226028-0.4542999-0.5153999-0.5366001-0.8789024h4.1838017
			v-0.4200974c0-0.3570023-0.0663033-0.6864014-0.1982002-0.988903c-0.1318016-0.3017006-0.3146019-0.5641975-0.5494995-0.7868004
			c-0.2341003-0.222599-0.5139008-0.3956985-0.8389015-0.5191975c-0.3248997-0.1235008-0.6781006-0.1853008-1.0589008-0.1853008
			c-0.3752003,0-0.7250996,0.0681992-1.0499992,0.2033005c-0.3255005,0.1357994-0.6079998,0.3191986-0.8486996,0.5508003
			c-0.2399006,0.2314987-0.4290009,0.5056992-0.5667,0.8215981c-0.137701,0.3164024-0.206501,0.6548996-0.206501,1.0165024
			c0,0.3557968,0.0662003,0.6903,0.198101,1.0042c0.1313,0.3134003,0.3158989,0.5854988,0.553299,0.8171997
			c0.2374001,0.2314987,0.5230999,0.4135971,0.8570004,0.5461998c0.3339005,0.1330986,0.7031994,0.199398,1.1072006,0.199398
			C31.2714996,36.9464989,31.7591991,36.8190994,32.1607018,36.5637016z M29.7262001,33.0702019
			c0.2605991-0.1583023,0.5692997-0.2368011,0.9270992-0.2368011c0.3691998,0,0.6793003,0.0727005,0.9315014,0.2187996
			c0.2515984,0.1459999,0.4221992,0.3602982,0.5095978,0.6421013h-2.9175987
			C29.2821999,33.4362984,29.4650002,33.2277985,29.7262001,33.0702019z"/>
		<path id="XMLID_434_" d="M37.2793007,34.2849007c-0.1757011-0.108799-0.3706017-0.1956024-0.5842018-0.2598991
			c-0.2141991-0.0643997-0.4264984-0.1158028-0.6375008-0.1551018c-0.3866997-0.0784988-0.6793976-0.1525002-0.8788986-0.2220001
			c-0.1987991-0.0700989-0.2985001-0.1858978-0.2985001-0.3479996c0-0.1395988,0.0675011-0.2625008,0.2019997-0.3685989
			c0.1351013-0.1062012,0.3428001-0.1595993,0.6240005-0.1595993c0.2463989,0,0.4626999,0.0501976,0.6505013,0.1504974
			c0.1871986,0.0998001,0.3339005,0.2360992,0.4393997,0.4085007L37.8069,32.8526993
			c-0.199501-0.328701-0.4704018-0.5878983-0.8132019-0.7790985c-0.3429985-0.191-0.7720985-0.2863007-1.2874985-0.2863007
			c-0.3049011,0-0.5816002,0.0405998-0.8304977,0.1215992c-0.2491035,0.0811005-0.4613037,0.1910992-0.6369019,0.3307018
			c-0.1757011,0.1403008-0.3120995,0.3003998-0.4085999,0.4818993c-0.0970993,0.1814995-0.145401,0.3698997-0.145401,0.5654984
			c0,0.2573013,0.0527,0.4710007,0.1583023,0.6408997c0.1054001,0.1704025,0.2430992,0.3100014,0.4129982,0.4194031
			c0.1697998,0.1086998,0.361599,0.1935997,0.575901,0.2553978c0.213501,0.0616989,0.4315987,0.114502,0.6548996,0.1589012
			c0.1576004,0.0335007,0.3101006,0.0643997,0.4567986,0.0919991c0.1459999,0.0283012,0.2733994,0.0629997,0.382103,0.1049004
			c0.1080971,0.0418015,0.1961975,0.0906982,0.2637978,0.1467018c0.0669022,0.0558968,0.1010017,0.1285973,0.1010017,0.2179985
			c0,0.1622009-0.0734024,0.3017998-0.2200012,0.4188995c-0.1460991,0.1170998-0.3661003,0.175602-0.658802,0.175602
			c-0.2811966,0-0.5275993-0.059803-0.7385979-0.1807022c-0.2103996-0.1209984-0.3777008-0.2940979-0.5005989-0.5191994
			l-1.0988007,0.4940987c0.2052002,0.4001999,0.4953995,0.7058029,0.8703995,0.9174004
			c0.3745003,0.2110023,0.8466988,0.3171997,1.4147987,0.3171997c0.3693008,0,0.6851997-0.0501976,0.9489021-0.1511993
			c0.2637978-0.100399,0.4819984-0.2304001,0.655098-0.3899002c0.1723022-0.1589012,0.3003998-0.3320007,0.3820992-0.5197983
			C37.8274002,35.6990013,37.868,35.5189018,37.868,35.3451004c0-0.2566986-0.0541-0.4709015-0.1621017-0.6413994
			C37.5970993,34.5339012,37.4548988,34.3936005,37.2793007,34.2849007z"/>
		<path id="XMLID_435_" d="M41.9193001,34.2849007c-0.175602-0.108799-0.3706017-0.1956024-0.584301-0.2598991
			c-0.2141991-0.0643997-0.4264984-0.1158028-0.6375008-0.1551018c-0.3865967-0.0784988-0.6793976-0.1525002-0.8787994-0.2220001
			c-0.1988983-0.0700989-0.2985992-0.1858978-0.2985992-0.3479996c0-0.1395988,0.0675011-0.2625008,0.2020988-0.3685989
			c0.1350021-0.1062012,0.3429031-0.1595993,0.6240997-0.1595993c0.2463036,0,0.4625015,0.0501976,0.6503029,0.1504974
			c0.1872978,0.0998001,0.3339996,0.2360992,0.4394989,0.4085007l1.0107002-0.4780006
			c-0.199501-0.328701-0.4702988-0.5878983-0.8132019-0.7790985c-0.3428993-0.191-0.7719994-0.2863007-1.2873001-0.2863007
			c-0.3049965,0-0.5816994,0.0405998-0.8306999,0.1215992c-0.2488976,0.0811005-0.4612999,0.1910992-0.636898,0.3307018
			c-0.1757011,0.1403008-0.3120003,0.3003998-0.4085007,0.4818993c-0.0971985,0.1814995-0.145401,0.3698997-0.145401,0.5654984
			c0,0.2573013,0.0527,0.4710007,0.1582031,0.6408997c0.1055984,0.1704025,0.2431984,0.3100014,0.4130974,0.4194031
			c0.1697998,0.1086998,0.3614998,0.1935997,0.5758018,0.2553978c0.2134972,0.0616989,0.4316978,0.114502,0.6548996,0.1589012
			c0.1576004,0.0335007,0.3101997,0.0643997,0.4567986,0.0919991c0.1460991,0.0283012,0.2735023,0.0629997,0.3822021,0.1049004
			c0.1080971,0.0418015,0.1961975,0.0906982,0.2637978,0.1467018c0.0669022,0.0558968,0.1010017,0.1285973,0.1010017,0.2179985
			c0,0.1622009-0.0734024,0.3017998-0.2201004,0.4188995c-0.1459999,0.1170998-0.3661003,0.175602-0.658802,0.175602
			c-0.2810974,0-0.5275993-0.059803-0.7385979-0.1807022c-0.2103996-0.1209984-0.3776016-0.2940979-0.5004997-0.5191994
			l-1.0988998,0.4940987c0.2052994,0.4001999,0.4953995,0.7058029,0.8704987,0.9174004
			c0.3744011,0.2110023,0.8466988,0.3171997,1.4146996,0.3171997c0.3693008,0,0.6853027-0.0501976,0.9491005-0.1511993
			c0.2638016-0.100399,0.4818001-0.2304001,0.6548996-0.3899002c0.1724014-0.1589012,0.3003998-0.3320007,0.3820992-0.5197983
			c0.0824013-0.1865997,0.1229019-0.3666992,0.1229019-0.5405006c0-0.2566986-0.0540009-0.4709015-0.1621017-0.6413994
			C42.2370987,34.5339012,42.0948982,34.3936005,41.9193001,34.2849007z"/>
		<path id="XMLID_438_" d="M47.3987007,32.5368004c-0.2430992-0.2341003-0.5255013-0.4174995-0.8479004-0.5500011
			c-0.3223-0.1331997-0.6677017-0.1994991-1.0371017-0.1994991c-0.3685989,0-0.7159996,0.0662994-1.0410004,0.1994991
			c-0.3254967,0.1325016-0.6079979,0.3159008-0.8484993,0.5500011c-0.2399979,0.2349014-0.4291992,0.5083008-0.5667992,0.8223
			c-0.1376991,0.3133011-0.2066002,0.6503983-0.2066002,1.012001c0,0.3557968,0.0689011,0.6903992,0.2066002,1.0037003
			c0.1375999,0.3139,0.3268013,0.5873985,0.5667992,0.8214989c0.2405014,0.2348976,0.5230026,0.4181976,0.8484993,0.5508003
			c0.3250008,0.1330986,0.6724014,0.199398,1.0410004,0.199398c0.3694,0,0.7148018-0.0662994,1.0371017-0.199398
			c0.3223991-0.1326027,0.6048012-0.3159027,0.8479004-0.5508003c0.2432976-0.2341003,0.4337997-0.5075989,0.5713005-0.8214989
			c0.1376991-0.3133011,0.2066002-0.6479034,0.2066002-1.0037003c0-0.3616028-0.0689011-0.6987-0.2066002-1.012001
			C47.8325005,33.0451012,47.6419983,32.7717018,47.3987007,32.5368004z M46.8936996,34.9353981
			c-0.0765991,0.1788025-0.1819992,0.3345032-0.3164978,0.4657021c-0.1345024,0.1325989-0.2928009,0.2368011-0.4748001,0.3139992
			c-0.1814003,0.0765991-0.3777008,0.1152-0.5887032,0.1152c-0.2109985,0-0.4084969-0.0386009-0.5931969-0.1152
			c-0.1846008-0.077198-0.3429031-0.1814003-0.474102-0.3139992c-0.1319008-0.1311989-0.2360992-0.2868996-0.3120995-0.4657021
			c-0.0764999-0.178299-0.114502-0.3667984-0.114502-0.5642967c0-0.2033005,0.038002-0.3944016,0.114502-0.5732002
			c0.0760002-0.1783028,0.1801987-0.3339005,0.3120995-0.4658012c0.1311989-0.1319008,0.2895012-0.2361984,0.474102-0.3134003
			c0.1847-0.0764999,0.3821983-0.1151009,0.5931969-0.1151009c0.2110023,0,0.4073029,0.0386009,0.5887032,0.1151009
			c0.1819992,0.0772018,0.3402977,0.1814995,0.4748001,0.3134003c0.1344986,0.1319008,0.2398987,0.2874985,0.3164978,0.4658012
			c0.0760002,0.1787987,0.1138992,0.3698997,0.1138992,0.5732002
			C47.0075989,34.5685997,46.9696999,34.7570992,46.8936996,34.9353981z"/>
		<path id="XMLID_439_" d="M51.1913986,31.7963009c-0.6381989,0-1.0775986,0.2548008-1.3181992,0.7643986v-0.7643986h-1.1773987
			v5.1410999h1.1863976v-2.7420006c0-0.4452019,0.0894012-0.766201,0.2683029-0.9623985
			c0.1781998-0.1963005,0.4407005-0.2940025,0.7860985-0.2940025c0.169899,0,0.3087997,0.0186005,0.4175987,0.0564995
			c0.1081009,0.0387001,0.206501,0.0870018,0.2946014,0.145401l0.4477997-1.1251984
			c-0.1170006-0.0643005-0.2503014-0.1171017-0.399498-0.1582012
			C51.5471992,31.8169994,51.3792992,31.7963009,51.1913986,31.7963009z"/>
		<path id="XMLID_440_" d="M17.6534004,28.7866993c0.3526001,0,0.6606998-0.0625,0.9251995-0.1864986
			c0.2644005-0.1242008,0.4843998-0.2961006,0.6606998-0.514801v0.6916008H20.5042v-5.5219002h-1.2738991v2.9606991
			c0,0.4735012-0.1164017,0.835701-0.3494015,1.0879002c-0.2327995,0.2522011-0.5255985,0.3782997-0.8781986,0.3782997
			c-0.4027004,0-0.6999016-0.1215992-0.8916016-0.3640995c-0.1924-0.2432995-0.2882996-0.5732002-0.2882996-0.9913998v-3.0713997
			h-1.2930994v3.2148991c0,0.7289009,0.1904993,1.2975998,0.5712996,1.7049007
			C16.4818001,28.5827999,16.9990997,28.7866993,17.6534004,28.7866993z"/>
		<path id="XMLID_444_" d="M21.9202003,28.0583992c0.2579994,0.2368011,0.5487995,0.4176006,0.8731003,0.5418015
			c0.3235989,0.1239986,0.6523991,0.1864986,0.9861984,0.1864986c0.3648014,0,0.7045002-0.0707989,1.0198002-0.2122993
			c0.3146-0.1415005,0.5726013-0.3351994,0.773901-0.5823002v0.7849007h1.2738991v-5.5219002h-1.2738991v0.728199
			C25.3719006,23.7556,25.1165009,23.5753994,24.8083,23.4435005c-0.3082008-0.1319008-0.6452999-0.198101-1.0100994-0.198101
			c-0.3460999,0-0.6839008,0.0624008-1.0146008,0.1865005c-0.3299999,0.1242008-0.6226997,0.3050003-0.8775005,0.5417995
			c-0.2554989,0.2361012-0.4601002,0.5262012-0.6138,0.8684998c-0.1543999,0.3429012-0.2315998,0.7354012-0.2315998,1.1786003
			c0,0.4362011,0.0790997,0.8261013,0.2361012,1.1690006C21.4545002,27.5326996,21.6616001,27.8223,21.9202003,28.0583992z
			 M22.4438992,25.3729992c0.0848999-0.1949997,0.2027016-0.3634987,0.3539009-0.5057983
			c0.1511002-0.1414013,0.3286991-0.2540016,0.5333004-0.336401c0.2047005-0.0830002,0.423399-0.1241989,0.6562996-0.1241989
			c0.2385998,0,0.4592991,0.0411987,0.6606998,0.1241989c0.2014008,0.0823994,0.3743992,0.1963005,0.5191994,0.3409996
			c0.1448002,0.144701,0.2593002,0.3153,0.3442001,0.5102005c0.0848999,0.1949997,0.1274014,0.4020996,0.1274014,0.6201992
			c0,0.2245007-0.0425014,0.4349003-0.1274014,0.6299c-0.0848999,0.1949005-0.1993999,0.3660011-0.3442001,0.5139999
			c-0.1448002,0.1480007-0.3177986,0.2631016-0.5191994,0.3461018c-0.2014008,0.0823994-0.4221001,0.1234989-0.6606998,0.1234989
			c-0.2329006,0-0.4515991-0.0410995-0.6562996-0.1234989c-0.2046013-0.0830002-0.3822002-0.1969013-0.5333004-0.3416004
			c-0.1511993-0.1448002-0.269001-0.3166008-0.3539009-0.514101c-0.0848999-0.1980991-0.1273994-0.4097996-0.1273994-0.6343002
			C22.3164997,25.7775993,22.3589993,25.5678997,22.4438992,25.3729992z"/>
		<path id="XMLID_445_" d="M28.8955994,25.8162994c0-0.4736004,0.1242008-0.8358002,0.3725014-1.0879993
			c0.2489986-0.2521992,0.5558987-0.3782997,0.9207001-0.3782997c0.4155998,0,0.7269993,0.1217003,0.9347,0.3641987
			c0.2071991,0.2432003,0.3113995,0.5732002,0.3113995,0.9914017v3.0713997h1.2931995v-3.214901
			c0-0.728899-0.1936989-1.2975998-0.5808983-1.7048988c-0.3867016-0.4078999-0.9233017-0.6118011-1.6091022-0.6118011
			c-0.3589993,0-0.6780987,0.0701008-0.9580002,0.2091007c-0.2804985,0.1396008-0.5113983,0.3241997-0.6940994,0.5545006v-0.7539005
			h-1.2649994v5.5219002h1.2745991V25.8162994z"/>
		<path id="XMLID_446_" d="M33.8321991,26.4738007c0,0.4406986,0.0359993,0.8066998,0.1086998,1.0994987
			c0.0720024,0.2926998,0.1935997,0.528801,0.3635025,0.7084007c0.1697998,0.1786995,0.3975983,0.3069,0.6844978,0.3820992
			c0.2863007,0.0753002,0.6434021,0.1132011,1.0712013,0.1132011h0.1795006v-1.1986008
			c-0.2458,0-0.4426003-0.0128002-0.589901-0.037899c-0.1479988-0.0251007-0.2612991-0.0771999-0.3404007-0.1557007
			c-0.0784988-0.0785007-0.1306-0.1917-0.1557007-0.3397007c-0.0250969-0.1479988-0.0373001-0.3415985-0.0373001-0.5809002
			v-2.0671997h1.1233025v-1.1418991h-1.1233025v-1.7178001l-1.2840996,0.8775005v0.8402996H32.888401v1.1418991h0.9437981
			V26.4738007z"/>
		<path id="XMLID_447_" d="M38.9765015,28.7866993c0.3524971,0,0.6606979-0.0625,0.9251976-0.1864986
			c0.2643013-0.1242008,0.4844017-0.2961006,0.6607018-0.514801v0.6916008h1.264801v-5.5219002H40.553299v2.9606991
			c0,0.4735012-0.1162987,0.835701-0.3493004,1.0879002c-0.2328987,0.2522011-0.5256004,0.3782997-0.8781967,0.3782997
			c-0.4027023,0-0.7000008-0.1215992-0.8917007-0.3640995c-0.1923027-0.2432995-0.2882004-0.5732002-0.2882004-0.9913998v-3.0713997
			h-1.2932014v3.2148991c0,0.7289009,0.1905022,1.2975998,0.5713005,1.7049007
			C37.8049011,28.5827999,38.3222008,28.7866993,38.9765015,28.7866993z"/>
		<path id="XMLID_448_" d="M43.8852997,25.7886009c0-0.4793015,0.1178017-0.8390007,0.3540001-1.0789013
			c0.2360001-0.2399998,0.5331993-0.3596992,0.8922005-0.3596992c0.3834991,0,0.6730003,0.1106987,0.868,0.3319988
			c0.1955986,0.2213001,0.2926979,0.5256004,0.2926979,0.9129009v3.1821003h1.2932014v-3.0160999
			c0-0.4735012,0.1164017-0.8267002,0.3493004-1.0601997c0.2327995-0.2336006,0.5223999-0.3507004,0.8684998-0.3507004
			c0.3963013,0,0.6954994,0.1152,0.8969002,0.345499c0.2014008,0.2310009,0.3017006,0.5430012,0.3017006,0.9361v3.145401h1.3028984
			v-3.2612c0-0.7045002-0.1885986-1.2584-0.5662003-1.6631012c-0.377697-0.4046993-0.9379997-0.6072998-1.6805-0.6072998
			c-0.3962975,0-0.7501984,0.0855007-1.0615005,0.2560997c-0.3120995,0.1704006-0.5616989,0.398201-0.7507973,0.6832008
			c-0.1634026-0.2971992-0.3950996-0.5282001-0.6935997-0.6928997c-0.299202-0.1641006-0.6659012-0.2464008-1.1001015-0.2464008
			c-0.339798,0-0.6433983,0.0650005-0.9104004,0.1942997c-0.267601,0.1293011-0.4896011,0.3055-0.6658974,0.5282001v-0.7127991
			h-1.264801v5.5219002h1.2743988V25.7886009z"/>
		<path id="XMLID_451_" d="M11.3962002,28.8976002c0.7131996,0,1.3741999-0.2147007,1.9306002-0.576601l0.4306993,0.4556007
			h1.7058001l-1.2355995-1.3071995c0.4459-0.5937004,0.7199001-1.3234997,0.7199001-2.1231003
			c0-1.961401-1.5900002-3.5513-3.5514002-3.5513c-1.9613199,0-3.55129,1.5898991-3.55129,3.5513
			S9.4348803,28.8976002,11.3962002,28.8976002z M11.3962002,23.0214996c1.2818995,0,2.3247995,1.0430012,2.3247995,2.3248005
			c0,0.4466-0.1327,0.8603001-0.3519001,1.2148991L12.3125,25.4433994h-1.7059002l1.8516998,1.9588013
			c-0.3198996,0.1660995-0.6774998,0.2688999-1.0620995,0.2688999c-1.2819004,0-2.3247299-1.0429001-2.3247299-2.3248005
			C9.0714703,24.0645008,10.1142998,23.0214996,11.3962002,23.0214996z"/>
		<path id="XMLID_455_" d="M41.8541985,19.4561005h8.1453018c0.7178001,0,1.3051987-0.5874004,1.3051987-1.3052998V10.0056
			c0-0.7178001-0.5873985-1.3051996-1.3051987-1.3051996h-8.1453018c-0.7178001,0-1.3051987,0.5873995-1.3051987,1.3051996
			v8.1452007C40.5489998,18.8687,41.1363983,19.4561005,41.8541985,19.4561005z"/>
		<polygon id="XMLID_457_" points="34.5903015,42.3914986 31.3892002,45.5131989 31.3892002,45.2905998 31.3892002,42.3914986 
			30.1166,42.3914986 30.1166,51.0803986 31.3892002,51.0803986 31.3892002,47.8959007 31.3892002,47.4351006 
			34.5903015,51.0803986 36.3834,51.0803986 32.273201,46.3997993 36.3834,42.3914986 		"/>
	</g>
	<g id="XMLID_1482_">
		<path id="XMLID_1484_" d="M27.9687996,47.581501v-5.1901016h-1.2220993l-3.5556011,5.4650002v1.0061989h3.5032005v2.2142029
			h1.2744999v-2.2142029h1.3289013V47.581501H27.9687996z M24.7712002,47.581501l1.9230995-2.9542999v2.9542999H24.7712002z"/>
	</g>
</g>
<g id="XMLID_5_">
	<path id="XMLID_9_" class="st0" d="M44.0091019,10.8123999l-2.2100029,6.2046003h1.2070007l0.3828011-1.1046h2.4048996
		l0.3828011,1.1046h1.2068977l-2.2098999-6.2046003H44.0091019z M43.7793999,14.8071003l0.8163986-2.3541002l0.8159027,2.3541002
		H43.7793999z"/>
	<rect id="XMLID_10_" x="48.3350983" y="10.8123999" class="st0" width="1.1562001" height="6.2045999"/>
</g>
</svg>
