<?xml version="1.0" encoding="utf-8"?>
<!-- Generator: Adobe Illustrator 19.0.0, SVG Export Plug-In . SVG Version: 6.00 Build 0)  -->
<svg version="1.1" id="Layer_1" xmlns="http://www.w3.org/2000/svg" xmlns:xlink="http://www.w3.org/1999/xlink" x="0px" y="0px"
	 viewBox="0 0 60 60" style="enable-background:new 0 0 60 60;" xml:space="preserve">
<style type="text/css">
	.st0{fill:#FFFFFF;}
</style>
<g id="XMLID_1_">
	<g id="XMLID_2_">
		<g id="XMLID_16_">
			<g id="XMLID_60_">
				<path id="XMLID_61_" d="M29.999897,13.0023003c-4.7481003,0-9.0368977,1.9504995-12.1215992,5.0886993
					c-0.4836006-0.0592995-0.9731007-0.0994987-1.4728012-0.0994987c-6.3785963,0-11.5800972,4.9808998-11.9622965,11.2633991
					H0.0205v1.5h4.4240999c0.3958001,6.2693005,5.5916996,11.2356014,11.9608965,11.2356014
					c0.4919014,0,0.9738998-0.0386009,1.4503002-0.0960999c3.0862999,3.1521988,7.3841,5.1134987,12.1441002,5.1134987
					c9.3904991,0,17.0029984-7.6124001,17.0029984-17.0028C47.0028954,20.6145992,39.3903961,13.0023003,29.999897,13.0023003z
					 M29.999897,45.5079002c-3.971199,0-7.5867004-1.5136986-10.3325005-3.9780998
					c5.0396042-1.4225006,8.7375011-6.0439987,8.7375011-11.5388012c0-5.4861984-3.6858978-10.1022987-8.7133999-11.5325985
					c2.7428989-2.4514008,6.3488998-3.9561005,10.3083992-3.9561005c8.5484009,0,15.5029984,6.9545002,15.5029984,15.5028
					C45.5028954,38.553299,38.5482979,45.5079002,29.999897,45.5079002z"/>
			</g>
		</g>
		<g id="XMLID_19_">
			<rect id="XMLID_35_" x="29.2704964" y="0.0049" width="1.5" height="9.8906002"/>
		</g>
		<g id="XMLID_20_">
			<rect id="XMLID_33_" x="29.2704964" y="50.1147003" width="1.5" height="9.8901997"/>
		</g>
		<g id="XMLID_21_">
			
				<rect id="XMLID_31_" x="7.358707" y="11.538928" transform="matrix(0.7071066 0.7071069 -0.7071069 0.7071066 12.2932901 -5.1009202)" width="9.890584" height="1.4998442"/>
		</g>
		<g id="XMLID_22_">
			
				<rect id="XMLID_29_" x="42.7918777" y="46.9715271" transform="matrix(-0.7071066 -0.7071069 0.7071069 -0.7071066 47.7481461 115.2208405)" width="9.8904419" height="1.4998442"/>
		</g>
		<g id="XMLID_23_">
			<rect id="XMLID_27_" x="50.1298981" y="29.2549" width="9.8906002" height="1.5"/>
		</g>
		<g id="XMLID_24_">
			
				<rect id="XMLID_18_" x="11.5541115" y="42.7761917" transform="matrix(-0.7071068 -0.7071068 0.7071068 -0.7071068 -12.7399216 90.1658554)" width="1.4997735" height="9.8905125"/>
		</g>
		<g id="XMLID_25_">
			
				<rect id="XMLID_15_" x="46.9871407" y="7.3435941" transform="matrix(0.7071068 0.7071068 -0.7071068 0.7071068 22.671402 -30.1559048)" width="1.4999149" height="9.8905125"/>
		</g>
	</g>
</g>
<g id="XMLID_745_">
	<polygon id="XMLID_746_" class="st0" points="7.6174002,26.7714005 8.7593002,26.7714005 8.7593002,34.5077019 
		10.1625996,34.5077019 10.1625996,25.4838009 7.6174002,25.4838009 	"/>
	<polygon id="XMLID_754_" class="st0" points="25.0404968,25.4827003 23.3927975,25.4827003 21.469698,28.6418991 
		19.5465965,25.4827003 17.8988972,25.4827003 20.6458969,29.9951992 17.8988972,34.5077019 19.5465965,34.5077019 
		21.469698,31.3484993 23.3927975,34.5077019 25.0404968,34.5077019 22.2935982,29.9951992 	"/>
	<path id="XMLID_757_" class="st0" d="M14.4460974,28.5918007c-0.1194,0-0.2322998,0.0219002-0.3483,0.0339985l2.0105991-3.1430988
		h-1.7155991c0,0-1.7071972,2.726099-2.311697,3.6912003c-0.6045008,0.9651985-0.8786001,1.6917-0.8786001,2.5618992
		c0,1.7363987,1.4521999,3.1439991,3.243597,3.1439991c1.7913008,0,3.2433996-1.4076004,3.2433996-3.1439991
		C17.689497,29.9993992,16.2373981,28.5918007,14.4460974,28.5918007z M14.4460001,33.482399
		c-0.9846029,0-1.7827997-0.8003006-1.7827997-1.7874985c0-0.9871998,0.7981968-1.7875004,1.7827997-1.7875004
		c0.9845972,0,1.7826967,0.8003006,1.7826967,1.7875004C16.2286968,32.6820984,15.4305973,33.482399,14.4460001,33.482399z"/>
</g>
</svg>
