<?xml version="1.0" encoding="utf-8"?>
<!-- Generator: Adobe Illustrator 19.0.0, SVG Export Plug-In . SVG Version: 6.00 Build 0)  -->
<svg version="1.1" id="Layer_1" xmlns="http://www.w3.org/2000/svg" xmlns:xlink="http://www.w3.org/1999/xlink" x="0px" y="0px"
	 viewBox="0 0 60 60" style="enable-background:new 0 0 60 60;" xml:space="preserve">
<g id="XMLID_63_">
	<polygon id="XMLID_211_" points="31.6941986,29.2383003 35.9818001,24.9507008 34.921299,23.8901005 28.8235989,29.9878006 
		34.921299,36.0858994 35.9818001,35.0253983 31.6950989,30.7383003 59.999897,30.7383003 59.999897,29.2383003 	"/>
	<rect id="XMLID_379_" x="49.5760994" y="33.7257996" width="1.5" height="23.2742004"/>
	<rect id="XMLID_380_" x="49.5760994" y="3" width="1.5" height="23.2502003"/>
	<rect id="XMLID_381_" x="55.5052986" y="33.7257996" width="1.5" height="23.2742004"/>
	<rect id="XMLID_382_" x="55.5052986" y="3" width="1.5" height="23.2502003"/>
	<polygon id="XMLID_383_" points="43.6479988,55.2109985 4.6052999,48.2960014 4.6052999,42.7366982 3.1052999,42.0238991 
		3.1052999,49.5536003 45.1479988,57 45.1479988,33.7257996 43.6479988,33.7257996 	"/>
	<polygon id="XMLID_384_" points="4.6052999,11.7210999 43.6479988,4.7897301 43.6479988,26.2502003 45.1479988,26.2502003 
		45.1479988,3 3.1052999,10.4638996 3.1052999,17.8966007 4.6052999,17.1937008 	"/>
	<path id="XMLID_387_" d="M24.8160992,37.7709007V22.1224003l-12.407999-5.8148994L0,22.1224003v15.6485004l12.4117994,5.8975983
		L24.8160992,37.7709007z M23.2054996,23.0242004l-10.7973995,5.0602989l-10.7973957-5.0604l10.7973957-5.0599995
		L23.2054996,23.0242004z M1.5,24.6289997l10.1581001,4.7602997v12.2604008L1.5,36.8228989V24.6289997z"/>
</g>
</svg>
