<?xml version="1.0" encoding="utf-8"?>
<!-- Generator: Adobe Illustrator 19.2.1, SVG Export Plug-In . SVG Version: 6.00 Build 0)  -->
<svg version="1.1" id="Layer_1" xmlns="http://www.w3.org/2000/svg" xmlns:xlink="http://www.w3.org/1999/xlink" x="0px" y="0px"
	 viewBox="0 0 60 60" style="enable-background:new 0 0 60 60;" xml:space="preserve">
<style type="text/css">
	.st0{fill:#FFFFFF;}
</style>
<g id="XMLID_3_">
	<g id="XMLID_34_">
		<g id="XMLID_69_">
			<path id="XMLID_70_" d="M30,13c-4.7,0-9,2-12.1,5.1c-0.5-0.1-1-0.1-1.5-0.1c-6.4,0-11.6,5-12,11.3H0v1.5h4.4
				C4.8,37,10,42,16.4,42c0.5,0,1,0,1.5-0.1C20.9,45,25.2,47,30,47c9.4,0,17-7.6,17-17C47,20.6,39.4,13,30,13z M30,45.5
				c-4,0-7.6-1.5-10.3-4c5-1.4,8.7-6,8.7-11.5c0-5.5-3.7-10.1-8.7-11.5c2.7-2.5,6.3-4,10.3-4c8.5,0,15.5,7,15.5,15.5
				C45.5,38.6,38.5,45.5,30,45.5z"/>
		</g>
	</g>
	<g id="XMLID_38_">
		<rect id="XMLID_28_" x="29.3" y="0" width="1.5" height="9.9"/>
	</g>
	<g id="XMLID_44_">
		<rect id="XMLID_26_" x="29.3" y="50.1" width="1.5" height="9.9"/>
	</g>
	<g id="XMLID_45_">
		
			<rect id="XMLID_24_" x="11.6" y="7.3" transform="matrix(0.7071 -0.7071 0.7071 0.7071 -5.0858 12.2995)" width="1.5" height="9.9"/>
	</g>
	<g id="XMLID_46_">
		
			<rect id="XMLID_22_" x="47" y="42.8" transform="matrix(0.7071 -0.7071 0.7071 0.7071 -19.7623 47.7325)" width="1.5" height="9.9"/>
	</g>
	<g id="XMLID_47_">
		<rect id="XMLID_20_" x="50.1" y="29.3" width="9.9" height="1.5"/>
	</g>
	<g id="XMLID_48_">
		
			<rect id="XMLID_18_" x="7.4" y="47" transform="matrix(0.7071 -0.7071 0.7071 0.7071 -30.1404 22.6775)" width="9.9" height="1.5"/>
	</g>
	<g id="XMLID_49_">
		
			<rect id="XMLID_16_" x="42.8" y="11.5" transform="matrix(0.7071 -0.7071 0.7071 0.7071 5.2924 37.3545)" width="9.9" height="1.5"/>
	</g>
</g>
<g id="XMLID_5_">
	<g id="XMLID_6_">
		<path id="XMLID_39_" class="st0" d="M11.1,29.7c0,0,1.2-0.6,1.2-2.1c0-1.5-1.3-2.5-2.9-2.5c-1.6,0-2.5,1.1-2.7,1.4l1,0.8
			c0,0,0.6-0.9,1.8-0.9c1.2,0,1.4,0.8,1.4,1.2c0,0.4-0.3,1.4-1.8,1.4c-0.5,0-0.7,0-0.7,0v1.4c0.2,0,0.4,0,0.8,0
			c0.5,0,1.8,0.3,1.8,1.6c0,1.3-1.2,1.5-1.6,1.5c-0.6,0-1.4-0.3-1.9-0.8l-0.9,1C7,34,7.8,34.8,9.4,34.8c1.6,0,3-1,3-2.9
			C12.4,30.3,11.1,29.7,11.1,29.7z"/>
	</g>
	<g id="XMLID_7_">
		<path id="XMLID_35_" class="st0" d="M15.9,31c1.1-0.8,2.7-1.8,2.7-3.4c0-1.6-1.3-2.4-2.8-2.4c-1.1,0-2.3,0.6-3,1.8l1.1,0.8
			c0.3-0.4,0.9-1.2,1.8-1.2c0.8,0,1.4,0.4,1.4,1.1c0,0.6-0.3,1.1-2.2,2.3c-1.8,1.2-2.1,2.8-2.1,3.8c0,0.6,0,0.8,0,0.8h5.7v-1.4h-4.1
			C14.6,32.3,14.9,31.7,15.9,31z"/>
	</g>
	<g id="XMLID_9_">
		<polygon id="XMLID_32_" class="st0" points="26.2,25.5 24.6,25.5 22.6,28.6 20.7,25.5 19.1,25.5 21.8,30 19.1,34.5 20.7,34.5 
			22.6,31.3 24.6,34.5 26.2,34.5 23.5,30 		"/>
	</g>
</g>
</svg>
