<?xml version="1.0" encoding="utf-8"?>
<!-- Generator: Adobe Illustrator 19.2.1, SVG Export Plug-In . SVG Version: 6.00 Build 0)  -->
<svg version="1.1" id="Layer_1" xmlns="http://www.w3.org/2000/svg" xmlns:xlink="http://www.w3.org/1999/xlink" x="0px" y="0px"
	 viewBox="0 0 60 60" style="enable-background:new 0 0 60 60;" xml:space="preserve">
<style type="text/css">
	.st0{fill:none;}
</style>
<rect id="XMLID_231_" x="3" y="3" class="st0" width="54" height="54"/>
<g id="XMLID_67_">
	<polygon id="XMLID_72_" points="54.9,28.5 38.8,28.5 38.8,30 57,30 49.8,9.4 43.5,9.4 43.5,10.9 48.8,10.9 	"/>
	<polygon id="XMLID_116_" points="21.2,28.5 5.1,28.5 11.2,10.9 16.5,10.9 16.5,9.4 10.1,9.4 3,30 21.2,30 	"/>
	<path id="XMLID_269_" d="M48.2,31.7h-1.6l4.8,13.8h-9.8v-8.2c0-1.9-1.6-3.5-3.5-3.5h-7.3v-8.7l4.3,4.3l1.1-1.1L30,22.2l-6.1,6.1
		l1.1,1.1l4.3-4.3v8.7H22c-1.9,0-3.5,1.6-3.5,3.5v8.2H8.6l4.8-13.8h-1.6L6.5,47h11.9v6.4c0,1.9,1.6,3.5,3.5,3.5h16.2
		c1.9,0,3.5-1.6,3.5-3.5V47h11.9L48.2,31.7z M40.1,53.5c0,1.1-0.9,2-2,2H21.9c-1.1,0-2-0.9-2-2V37.3c0-1.1,0.9-2,2-2h16.2
		c1.1,0,2,0.9,2,2V53.5z"/>
	<path id="XMLID_334_" d="M28.7,40.3h-2l-3.5,10h2.2l0.6-1.7h3.5l0.6,1.7h2.2l-3.5-9.9L28.7,40.3z M26.7,46.5l1-3l1,3H26.7z"/>
	<rect id="XMLID_335_" x="33.4" y="40.3" width="2.1" height="10"/>
	<polygon id="XMLID_336_" points="33.5,13.3 33.5,12.9 39,19.1 42.6,19.1 35.1,10.6 42.6,3.3 39,3.3 33.5,8.6 33.5,8.6 33.5,3.3 
		30.9,3.3 30.9,19.1 33.5,19.1 	"/>
	<path id="XMLID_343_" d="M19.4,14.5c0,2.7,2.2,4.9,4.9,4.9s4.9-2.2,4.9-4.9c0-1.6-0.8-3-2-3.9c0.9-0.8,1.5-2,1.5-3.2
		C28.6,5,26.7,3,24.3,3S20,4.9,20,7.3c0,1.3,0.6,2.5,1.5,3.2C20.2,11.5,19.4,12.9,19.4,14.5z M24.3,5.4c1.1,0,1.9,0.9,1.9,1.9
		c0,1.1-0.9,1.9-1.9,1.9s-1.9-0.9-1.9-1.9S23.2,5.4,24.3,5.4z M24.3,12.1c1.3,0,2.4,1.1,2.4,2.4s-1.1,2.4-2.4,2.4s-2.4-1.1-2.4-2.4
		S23,12.1,24.3,12.1z"/>
</g>
</svg>
