<?xml version="1.0" encoding="utf-8"?>
<!-- Generator: Adobe Illustrator 19.2.1, SVG Export Plug-In . SVG Version: 6.00 Build 0)  -->
<svg version="1.1" id="Layer_1" xmlns="http://www.w3.org/2000/svg" xmlns:xlink="http://www.w3.org/1999/xlink" x="0px" y="0px"
	 viewBox="0 0 60 60" style="enable-background:new 0 0 60 60;" xml:space="preserve">
<style type="text/css">
	.st0{fill:none;}
</style>
<rect id="XMLID_586_" x="3" y="3" class="st0" width="54" height="54"/>
<g id="XMLID_58_">
	<path id="XMLID_329_" d="M49.1,3H10.9C6.6,3,3,6.6,3,10.9v38.1c0,4.4,3.6,7.9,7.9,7.9h38.1c4.4,0,7.9-3.6,7.9-7.9V10.9
		C57,6.6,53.4,3,49.1,3z M55.5,49.1c0,3.5-2.9,6.4-6.4,6.4H10.9c-3.5,0-6.4-2.9-6.4-6.4V10.9c0-3.5,2.9-6.4,6.4-6.4h38.1
		c3.5,0,6.4,2.9,6.4,6.4V49.1z"/>
	<path id="XMLID_393_" d="M12.5,31.2c-0.2-0.2-0.4-0.4-0.7-0.5c-0.3-0.1-0.6-0.2-0.9-0.2H8.6v6.4h1.2v-1.8h1c0.3,0,0.6-0.1,0.9-0.2
		c0.3-0.1,0.5-0.3,0.7-0.5s0.4-0.4,0.5-0.7c0.1-0.3,0.2-0.6,0.2-0.9c0-0.3-0.1-0.6-0.2-0.9C12.8,31.6,12.7,31.4,12.5,31.2z
		 M11.8,33.3c-0.1,0.1-0.1,0.3-0.2,0.4c-0.1,0.1-0.2,0.2-0.4,0.3C11.1,34,10.9,34,10.7,34H9.8v-2.4h0.9c0.2,0,0.3,0,0.5,0.1
		c0.1,0.1,0.3,0.1,0.4,0.3c0.1,0.1,0.2,0.2,0.2,0.4c0.1,0.1,0.1,0.3,0.1,0.5C11.9,33,11.9,33.1,11.8,33.3z"/>
	<path id="XMLID_395_" d="M16.7,31.9c-0.1,0-0.3-0.1-0.5-0.1c-0.6,0-1.1,0.3-1.3,0.8v-0.8h-1.2v5.1h1.2v-2.7c0-0.4,0.1-0.8,0.3-1
		c0.2-0.2,0.4-0.3,0.8-0.3c0.2,0,0.3,0,0.4,0.1c0.1,0,0.2,0.1,0.3,0.1l0.4-1.1C17,32,16.9,31.9,16.7,31.9z"/>
	<path id="XMLID_429_" d="M21.4,32.5c-0.2-0.2-0.5-0.4-0.8-0.5c-0.3-0.1-0.7-0.2-1-0.2c-0.4,0-0.7,0.1-1,0.2
		c-0.3,0.1-0.6,0.3-0.8,0.5c-0.2,0.2-0.4,0.5-0.6,0.8c-0.1,0.3-0.2,0.7-0.2,1c0,0.4,0.1,0.7,0.2,1c0.1,0.3,0.3,0.6,0.6,0.8
		c0.2,0.2,0.5,0.4,0.8,0.6c0.3,0.1,0.7,0.2,1,0.2c0.4,0,0.7-0.1,1-0.2c0.3-0.1,0.6-0.3,0.8-0.6c0.2-0.2,0.4-0.5,0.6-0.8
		c0.1-0.3,0.2-0.6,0.2-1c0-0.4-0.1-0.7-0.2-1C21.9,33,21.7,32.8,21.4,32.5z M20.9,34.9c-0.1,0.2-0.2,0.3-0.3,0.5
		c-0.1,0.1-0.3,0.2-0.5,0.3c-0.2,0.1-0.4,0.1-0.6,0.1s-0.4,0-0.6-0.1c-0.2-0.1-0.3-0.2-0.5-0.3c-0.1-0.1-0.2-0.3-0.3-0.5
		c-0.1-0.2-0.1-0.4-0.1-0.6c0-0.2,0-0.4,0.1-0.6c0.1-0.2,0.2-0.3,0.3-0.5c0.1-0.1,0.3-0.2,0.5-0.3c0.2-0.1,0.4-0.1,0.6-0.1
		s0.4,0,0.6,0.1c0.2,0.1,0.3,0.2,0.5,0.3c0.1,0.1,0.2,0.3,0.3,0.5C21,34,21,34.2,21,34.4C21,34.6,21,34.8,20.9,34.9z"/>
	<path id="XMLID_430_" d="M25.3,36.9c0.3,0,0.6,0,0.8-0.1c0.3-0.1,0.5-0.2,0.7-0.3c0.2-0.1,0.4-0.3,0.5-0.5c0.2-0.2,0.3-0.4,0.4-0.6
		l-1.1-0.4c-0.1,0.3-0.3,0.5-0.5,0.6c-0.2,0.2-0.5,0.3-0.9,0.3c-0.2,0-0.4,0-0.6-0.1c-0.2-0.1-0.4-0.2-0.5-0.3
		c-0.1-0.1-0.2-0.3-0.3-0.5c-0.1-0.2-0.1-0.4-0.1-0.6c0-0.2,0-0.4,0.1-0.6c0.1-0.2,0.2-0.3,0.3-0.5c0.1-0.1,0.3-0.2,0.5-0.3
		c0.2-0.1,0.4-0.1,0.6-0.1c0.3,0,0.6,0.1,0.8,0.2c0.2,0.2,0.4,0.4,0.5,0.6l1.1-0.4c-0.1-0.2-0.2-0.4-0.4-0.6
		c-0.2-0.2-0.3-0.4-0.6-0.5c-0.2-0.1-0.4-0.2-0.7-0.3c-0.3-0.1-0.5-0.1-0.8-0.1c-0.4,0-0.7,0.1-1,0.2c-0.3,0.1-0.6,0.3-0.8,0.5
		c-0.2,0.2-0.4,0.5-0.6,0.8c-0.1,0.3-0.2,0.7-0.2,1c0,0.4,0.1,0.7,0.2,1c0.1,0.3,0.3,0.6,0.6,0.8c0.2,0.2,0.5,0.4,0.8,0.6
		C24.5,36.9,24.9,36.9,25.3,36.9z"/>
	<path id="XMLID_433_" d="M32.2,36.6c0.4-0.3,0.7-0.6,0.9-1l-1-0.6c-0.1,0.3-0.3,0.5-0.6,0.7c-0.2,0.2-0.5,0.2-0.9,0.2
		c-0.4,0-0.8-0.1-1-0.3c-0.3-0.2-0.5-0.5-0.5-0.9h4.2v-0.4c0-0.4-0.1-0.7-0.2-1c-0.1-0.3-0.3-0.6-0.5-0.8c-0.2-0.2-0.5-0.4-0.8-0.5
		c-0.3-0.1-0.7-0.2-1.1-0.2c-0.4,0-0.7,0.1-1,0.2c-0.3,0.1-0.6,0.3-0.8,0.6c-0.2,0.2-0.4,0.5-0.6,0.8c-0.1,0.3-0.2,0.7-0.2,1
		c0,0.4,0.1,0.7,0.2,1c0.1,0.3,0.3,0.6,0.6,0.8c0.2,0.2,0.5,0.4,0.9,0.5c0.3,0.1,0.7,0.2,1.1,0.2C31.3,36.9,31.8,36.8,32.2,36.6z
		 M29.7,33.1c0.3-0.2,0.6-0.2,0.9-0.2c0.4,0,0.7,0.1,0.9,0.2c0.3,0.1,0.4,0.4,0.5,0.6h-2.9C29.3,33.4,29.5,33.2,29.7,33.1z"/>
	<path id="XMLID_434_" d="M37.3,34.3c-0.2-0.1-0.4-0.2-0.6-0.3c-0.2-0.1-0.4-0.1-0.6-0.2c-0.4-0.1-0.7-0.2-0.9-0.2
		c-0.2-0.1-0.3-0.2-0.3-0.3c0-0.1,0.1-0.3,0.2-0.4c0.1-0.1,0.3-0.2,0.6-0.2c0.2,0,0.5,0.1,0.7,0.2c0.2,0.1,0.3,0.2,0.4,0.4l1-0.5
		c-0.2-0.3-0.5-0.6-0.8-0.8c-0.3-0.2-0.8-0.3-1.3-0.3c-0.3,0-0.6,0-0.8,0.1c-0.2,0.1-0.5,0.2-0.6,0.3c-0.2,0.1-0.3,0.3-0.4,0.5
		c-0.1,0.2-0.1,0.4-0.1,0.6c0,0.3,0.1,0.5,0.2,0.6c0.1,0.2,0.2,0.3,0.4,0.4c0.2,0.1,0.4,0.2,0.6,0.3c0.2,0.1,0.4,0.1,0.7,0.2
		c0.2,0,0.3,0.1,0.5,0.1c0.1,0,0.3,0.1,0.4,0.1c0.1,0,0.2,0.1,0.3,0.1c0.1,0.1,0.1,0.1,0.1,0.2c0,0.2-0.1,0.3-0.2,0.4
		c-0.1,0.1-0.4,0.2-0.7,0.2c-0.3,0-0.5-0.1-0.7-0.2c-0.2-0.1-0.4-0.3-0.5-0.5l-1.1,0.5c0.2,0.4,0.5,0.7,0.9,0.9
		c0.4,0.2,0.8,0.3,1.4,0.3c0.4,0,0.7-0.1,0.9-0.2c0.3-0.1,0.5-0.2,0.7-0.4c0.2-0.2,0.3-0.3,0.4-0.5c0.1-0.2,0.1-0.4,0.1-0.5
		c0-0.3-0.1-0.5-0.2-0.6C37.6,34.5,37.5,34.4,37.3,34.3z"/>
	<path id="XMLID_435_" d="M41.9,34.3c-0.2-0.1-0.4-0.2-0.6-0.3c-0.2-0.1-0.4-0.1-0.6-0.2c-0.4-0.1-0.7-0.2-0.9-0.2
		c-0.2-0.1-0.3-0.2-0.3-0.3c0-0.1,0.1-0.3,0.2-0.4c0.1-0.1,0.3-0.2,0.6-0.2c0.2,0,0.5,0.1,0.7,0.2c0.2,0.1,0.3,0.2,0.4,0.4l1-0.5
		c-0.2-0.3-0.5-0.6-0.8-0.8c-0.3-0.2-0.8-0.3-1.3-0.3c-0.3,0-0.6,0-0.8,0.1c-0.2,0.1-0.5,0.2-0.6,0.3c-0.2,0.1-0.3,0.3-0.4,0.5
		c-0.1,0.2-0.1,0.4-0.1,0.6c0,0.3,0.1,0.5,0.2,0.6c0.1,0.2,0.2,0.3,0.4,0.4c0.2,0.1,0.4,0.2,0.6,0.3c0.2,0.1,0.4,0.1,0.7,0.2
		c0.2,0,0.3,0.1,0.5,0.1c0.1,0,0.3,0.1,0.4,0.1c0.1,0,0.2,0.1,0.3,0.1c0.1,0.1,0.1,0.1,0.1,0.2c0,0.2-0.1,0.3-0.2,0.4
		c-0.1,0.1-0.4,0.2-0.7,0.2c-0.3,0-0.5-0.1-0.7-0.2c-0.2-0.1-0.4-0.3-0.5-0.5l-1.1,0.5c0.2,0.4,0.5,0.7,0.9,0.9
		c0.4,0.2,0.8,0.3,1.4,0.3c0.4,0,0.7-0.1,0.9-0.2c0.3-0.1,0.5-0.2,0.7-0.4c0.2-0.2,0.3-0.3,0.4-0.5c0.1-0.2,0.1-0.4,0.1-0.5
		c0-0.3-0.1-0.5-0.2-0.6C42.2,34.5,42.1,34.4,41.9,34.3z"/>
	<path id="XMLID_438_" d="M47.4,32.5c-0.2-0.2-0.5-0.4-0.8-0.5c-0.3-0.1-0.7-0.2-1-0.2c-0.4,0-0.7,0.1-1,0.2
		c-0.3,0.1-0.6,0.3-0.8,0.5c-0.2,0.2-0.4,0.5-0.6,0.8c-0.1,0.3-0.2,0.7-0.2,1c0,0.4,0.1,0.7,0.2,1c0.1,0.3,0.3,0.6,0.6,0.8
		c0.2,0.2,0.5,0.4,0.8,0.6c0.3,0.1,0.7,0.2,1,0.2c0.4,0,0.7-0.1,1-0.2c0.3-0.1,0.6-0.3,0.8-0.6c0.2-0.2,0.4-0.5,0.6-0.8
		c0.1-0.3,0.2-0.6,0.2-1c0-0.4-0.1-0.7-0.2-1C47.8,33,47.6,32.8,47.4,32.5z M46.9,34.9c-0.1,0.2-0.2,0.3-0.3,0.5
		c-0.1,0.1-0.3,0.2-0.5,0.3c-0.2,0.1-0.4,0.1-0.6,0.1c-0.2,0-0.4,0-0.6-0.1c-0.2-0.1-0.3-0.2-0.5-0.3c-0.1-0.1-0.2-0.3-0.3-0.5
		c-0.1-0.2-0.1-0.4-0.1-0.6c0-0.2,0-0.4,0.1-0.6c0.1-0.2,0.2-0.3,0.3-0.5c0.1-0.1,0.3-0.2,0.5-0.3c0.2-0.1,0.4-0.1,0.6-0.1
		c0.2,0,0.4,0,0.6,0.1c0.2,0.1,0.3,0.2,0.5,0.3c0.1,0.1,0.2,0.3,0.3,0.5C47,34,47,34.2,47,34.4C47,34.6,47,34.8,46.9,34.9z"/>
	<path id="XMLID_439_" d="M51.2,31.8c-0.6,0-1.1,0.3-1.3,0.8v-0.8h-1.2v5.1h1.2v-2.7c0-0.4,0.1-0.8,0.3-1c0.2-0.2,0.4-0.3,0.8-0.3
		c0.2,0,0.3,0,0.4,0.1c0.1,0,0.2,0.1,0.3,0.1l0.4-1.1c-0.1-0.1-0.3-0.1-0.4-0.2C51.5,31.8,51.4,31.8,51.2,31.8z"/>
	<path id="XMLID_440_" d="M17.7,28.8c0.4,0,0.7-0.1,0.9-0.2c0.3-0.1,0.5-0.3,0.7-0.5v0.7h1.3v-5.5h-1.3v3c0,0.5-0.1,0.8-0.3,1.1
		c-0.2,0.3-0.5,0.4-0.9,0.4c-0.4,0-0.7-0.1-0.9-0.4c-0.2-0.2-0.3-0.6-0.3-1v-3.1h-1.3v3.2c0,0.7,0.2,1.3,0.6,1.7
		C16.5,28.6,17,28.8,17.7,28.8z"/>
	<path id="XMLID_444_" d="M21.9,28.1c0.3,0.2,0.5,0.4,0.9,0.5c0.3,0.1,0.7,0.2,1,0.2c0.4,0,0.7-0.1,1-0.2c0.3-0.1,0.6-0.3,0.8-0.6
		v0.8h1.3v-5.5h-1.3V24c-0.2-0.2-0.5-0.4-0.8-0.5c-0.3-0.1-0.6-0.2-1-0.2c-0.3,0-0.7,0.1-1,0.2c-0.3,0.1-0.6,0.3-0.9,0.5
		c-0.3,0.2-0.5,0.5-0.6,0.9c-0.2,0.3-0.2,0.7-0.2,1.2c0,0.4,0.1,0.8,0.2,1.2C21.5,27.5,21.7,27.8,21.9,28.1z M22.4,25.4
		c0.1-0.2,0.2-0.4,0.4-0.5c0.2-0.1,0.3-0.3,0.5-0.3c0.2-0.1,0.4-0.1,0.7-0.1c0.2,0,0.5,0,0.7,0.1c0.2,0.1,0.4,0.2,0.5,0.3
		c0.1,0.1,0.3,0.3,0.3,0.5c0.1,0.2,0.1,0.4,0.1,0.6c0,0.2,0,0.4-0.1,0.6c-0.1,0.2-0.2,0.4-0.3,0.5c-0.1,0.1-0.3,0.3-0.5,0.3
		c-0.2,0.1-0.4,0.1-0.7,0.1c-0.2,0-0.5,0-0.7-0.1c-0.2-0.1-0.4-0.2-0.5-0.3c-0.2-0.1-0.3-0.3-0.4-0.5c-0.1-0.2-0.1-0.4-0.1-0.6
		C22.3,25.8,22.4,25.6,22.4,25.4z"/>
	<path id="XMLID_445_" d="M28.9,25.8c0-0.5,0.1-0.8,0.4-1.1c0.2-0.3,0.6-0.4,0.9-0.4c0.4,0,0.7,0.1,0.9,0.4c0.2,0.2,0.3,0.6,0.3,1
		v3.1h1.3v-3.2c0-0.7-0.2-1.3-0.6-1.7c-0.4-0.4-0.9-0.6-1.6-0.6c-0.4,0-0.7,0.1-1,0.2c-0.3,0.1-0.5,0.3-0.7,0.6v-0.8h-1.3v5.5h1.3
		V25.8z"/>
	<path id="XMLID_446_" d="M33.8,26.5c0,0.4,0,0.8,0.1,1.1c0.1,0.3,0.2,0.5,0.4,0.7c0.2,0.2,0.4,0.3,0.7,0.4c0.3,0.1,0.6,0.1,1.1,0.1
		h0.2v-1.2c-0.2,0-0.4,0-0.6,0c-0.1,0-0.3-0.1-0.3-0.2c-0.1-0.1-0.1-0.2-0.2-0.3c0-0.1,0-0.3,0-0.6v-2.1h1.1v-1.1h-1.1v-1.7
		l-1.3,0.9v0.8h-0.9v1.1h0.9V26.5z"/>
	<path id="XMLID_447_" d="M39,28.8c0.4,0,0.7-0.1,0.9-0.2c0.3-0.1,0.5-0.3,0.7-0.5v0.7h1.3v-5.5h-1.3v3c0,0.5-0.1,0.8-0.3,1.1
		c-0.2,0.3-0.5,0.4-0.9,0.4c-0.4,0-0.7-0.1-0.9-0.4c-0.2-0.2-0.3-0.6-0.3-1v-3.1h-1.3v3.2c0,0.7,0.2,1.3,0.6,1.7
		C37.8,28.6,38.3,28.8,39,28.8z"/>
	<path id="XMLID_448_" d="M43.9,25.8c0-0.5,0.1-0.8,0.4-1.1c0.2-0.2,0.5-0.4,0.9-0.4c0.4,0,0.7,0.1,0.9,0.3c0.2,0.2,0.3,0.5,0.3,0.9
		v3.2h1.3v-3c0-0.5,0.1-0.8,0.3-1.1c0.2-0.2,0.5-0.4,0.9-0.4c0.4,0,0.7,0.1,0.9,0.3c0.2,0.2,0.3,0.5,0.3,0.9v3.1h1.3v-3.3
		c0-0.7-0.2-1.3-0.6-1.7c-0.4-0.4-0.9-0.6-1.7-0.6c-0.4,0-0.8,0.1-1.1,0.3c-0.3,0.2-0.6,0.4-0.8,0.7c-0.2-0.3-0.4-0.5-0.7-0.7
		c-0.3-0.2-0.7-0.2-1.1-0.2c-0.3,0-0.6,0.1-0.9,0.2c-0.3,0.1-0.5,0.3-0.7,0.5v-0.7h-1.3v5.5h1.3V25.8z"/>
	<path id="XMLID_451_" d="M11.4,28.9c0.7,0,1.4-0.2,1.9-0.6l0.4,0.5h1.7l-1.2-1.3c0.4-0.6,0.7-1.3,0.7-2.1c0-2-1.6-3.6-3.6-3.6
		c-2,0-3.6,1.6-3.6,3.6S9.4,28.9,11.4,28.9z M11.4,23c1.3,0,2.3,1,2.3,2.3c0,0.4-0.1,0.9-0.4,1.2l-1.1-1.1h-1.7l1.9,2
		c-0.3,0.2-0.7,0.3-1.1,0.3c-1.3,0-2.3-1-2.3-2.3C9.1,24.1,10.1,23,11.4,23z"/>
	<polygon id="XMLID_452_" points="44.6,12.5 43.8,14.8 45.4,14.8 	"/>
	<path id="XMLID_455_" d="M41.9,19.5H50c0.7,0,1.3-0.6,1.3-1.3V10c0-0.7-0.6-1.3-1.3-1.3h-8.1c-0.7,0-1.3,0.6-1.3,1.3v8.1
		C40.5,18.9,41.1,19.5,41.9,19.5z M48.3,10.8h1.2V17h-1.2V10.8z M44,10.8h1.2l2.2,6.2h-1.2l-0.4-1.1h-2.4L43,17h-1.2L44,10.8z"/>
	<polygon id="XMLID_457_" points="34.6,42.4 31.4,45.5 31.4,45.3 31.4,42.4 30.1,42.4 30.1,51.1 31.4,51.1 31.4,47.9 31.4,47.4 
		34.6,51.1 36.4,51.1 32.3,46.4 36.4,42.4 	"/>
	<path id="XMLID_460_" d="M28.1,46.4c0.5-0.4,0.8-1.1,0.8-1.8c0-1.3-1.1-2.4-2.4-2.4c-1.3,0-2.4,1.1-2.4,2.4c0,0.7,0.3,1.3,0.8,1.8
		c-0.7,0.5-1.1,1.3-1.1,2.1c0,1.5,1.2,2.7,2.7,2.7c1.5,0,2.7-1.2,2.7-2.7C29.2,47.7,28.8,46.9,28.1,46.4z M26.5,43.5
		c0.6,0,1.1,0.5,1.1,1.1c0,0.6-0.5,1.1-1.1,1.1c-0.6,0-1.1-0.5-1.1-1.1C25.4,44,25.9,43.5,26.5,43.5z M26.5,49.9
		c-0.8,0-1.4-0.6-1.4-1.4c0-0.8,0.6-1.4,1.4-1.4c0.8,0,1.4,0.6,1.4,1.4C27.9,49.3,27.3,49.9,26.5,49.9z"/>
</g>
</svg>
